<svg width="1177" height="1125" viewBox="0 0 1177 1125" fill="none" xmlns="http://www.w3.org/2000/svg">
<path d="M1156.9 161.487C1207.85 285.56 1150.36 370.94 1112.32 417.307L926.184 649.79C922.219 654.742 921.555 661.568 924.489 667.192L1159.14 1116.83C1161.69 1121.72 1155.61 1126.53 1151.44 1122.93L623.339 667.404C617.219 662.124 616.382 652.944 621.448 646.645L932.904 259.38C939.746 250.874 933.69 238.233 922.774 238.233H427.477C415.044 238.233 403.814 245.661 398.949 257.103L355.342 359.664C351.135 369.557 358.395 380.533 369.146 380.533H613.394C625.902 380.533 632.916 394.942 625.2 404.786L76.3537 1105.02C73.564 1108.57 67.9373 1105.5 69.4296 1101.23L219.092 673.128C245.841 613.01 206.189 612.37 185.656 612.37L17.7504 612.37C5.82076 612.37 -2.39854 600.404 1.8831 589.269L179.287 127.91C219.092 28.6462 277.838 0.000121961 384.681 0H935.582C1070.6 11.5119 1139.38 112.454 1156.9 161.487Z" fill="url(#paint0_linear_21_107)"/>
<defs>
<linearGradient id="paint0_linear_21_107" x1="1129.5" y1="66.5" x2="65" y2="985.5" gradientUnits="userSpaceOnUse">
<stop stop-color="#FF7676"/>
<stop offset="0.355" stop-color="#DC4335"/>
<stop offset="0.765" stop-color="#D1946E"/>
<stop offset="1" stop-color="#FA3535"/>
</linearGradient>
</defs>
</svg>
